<?xml version="1.0" encoding="utf-8"?>
<svg viewBox="40.4474 100.3851 435.185 209.712"
	xmlns="http://www.w3.org/2000/svg">
	<path d="M 431.185 218.187 C 433.394 218.187 435.185 216.396 435.185 214.187 C 435.185 211.978 433.394 210.187 431.185 210.187 L 408.605 210.187 L 408.605 199.181 C 415.875 200.813 423.43 201.68 431.185 201.68 C 433.394 201.68 435.185 199.889 435.185 197.68 C 435.185 195.471 433.394 193.68 431.185 193.68 C 378.785 193.68 336.156 151.05 336.156 98.651 C 336.156 96.442 334.365 94.651 332.156 94.651 L 328.388 94.651 L 328.388 81.176 C 328.388 78.967 326.597 77.176 324.388 77.176 C 322.179 77.176 320.388 78.967 320.388 81.176 L 320.388 94.652 L 316.621 94.652 C 314.412 94.652 312.621 96.443 312.621 98.652 C 312.621 151.051 269.991 193.681 217.592 193.681 C 165.193 193.681 122.563 151.051 122.563 98.652 C 122.563 96.443 120.772 94.652 118.563 94.652 L 114.796 94.652 L 114.796 81.176 C 114.796 78.967 113.005 77.176 110.796 77.176 C 108.587 77.176 106.796 78.967 106.796 81.176 L 106.796 94.652 L 103.029 94.652 C 100.82 94.652 99.029 96.443 99.029 98.652 C 99.029 151.051 56.399 193.681 4 193.681 C 1.791 193.681 0 195.472 0 197.681 C 0 199.89 1.791 201.681 4 201.681 C 11.759 201.681 19.317 200.813 26.59 199.18 L 26.59 210.188 L 4 210.188 C 1.791 210.188 0 211.979 0 214.188 C 0 216.397 1.791 218.188 4 218.188 L 99.029 218.188 L 99.029 226.688 L 4 226.688 C 1.791 226.688 0 228.479 0 230.688 C 0 232.897 1.791 234.688 4 234.688 L 99.029 234.688 L 99.029 286.888 L 335.948 286.888 C 335.948 284.679 336.156 286.888 336.156 286.888 L 336.156 234.688 L 431.185 234.688 C 433.394 234.688 435.185 232.897 435.185 230.688 C 435.185 228.479 433.394 226.688 431.185 226.688 L 336.156 226.688 L 336.156 218.188 L 431.185 218.188 L 431.185 218.187 Z M 400.604 210.187 L 382.014 210.187 L 382.014 189.17 C 387.89 192.375 394.11 195.025 400.604 197.047 L 400.604 210.187 Z M 374.015 184.321 L 374.015 210.187 L 355.423 210.187 L 355.423 168.395 C 360.961 174.406 367.201 179.759 374.015 184.321 Z M 347.423 158.574 L 347.423 210.187 L 336.156 210.187 L 336.156 138.449 C 339.162 145.602 342.954 152.347 347.423 158.574 Z M 312.621 226.687 L 122.563 226.687 L 122.563 218.187 L 312.621 218.187 L 312.621 226.687 Z M 107.029 102.651 L 114.563 102.651 L 114.563 286.884 L 107.029 286.884 L 107.029 102.651 Z M 248.178 210.187 L 248.178 197.045 C 254.672 195.023 260.892 192.372 266.768 189.167 L 266.768 210.187 L 248.178 210.187 Z M 240.178 210.187 L 221.588 210.187 L 221.588 201.595 C 227.948 201.351 234.161 200.531 240.178 199.18 L 240.178 210.187 Z M 213.588 210.187 L 195.008 210.187 L 195.008 199.18 C 201.021 200.531 207.232 201.351 213.588 201.595 L 213.588 210.187 Z M 187.008 210.187 L 168.418 210.187 L 168.418 189.167 C 174.294 192.372 180.514 195.022 187.008 197.046 L 187.008 210.187 Z M 320.621 102.651 L 328.155 102.651 L 328.155 286.884 L 320.621 286.884 L 320.621 102.651 Z M 312.621 210.187 L 301.357 210.187 L 301.357 158.569 C 305.824 152.342 309.615 145.6 312.621 138.449 L 312.621 210.187 Z M 293.357 168.391 L 293.357 210.188 L 274.767 210.188 L 274.767 184.318 C 281.581 179.755 287.82 174.402 293.357 168.391 Z M 160.417 184.318 L 160.417 210.187 L 141.826 210.187 L 141.826 168.39 C 147.364 174.402 153.604 179.756 160.417 184.318 Z M 133.826 158.568 L 133.826 210.187 L 122.563 210.187 L 122.563 138.449 C 125.569 145.6 129.36 152.342 133.826 158.568 Z M 79.77 168.386 L 79.77 210.188 L 61.18 210.188 L 61.18 184.315 C 67.993 179.751 74.233 174.397 79.77 168.386 Z M 34.59 197.045 C 41.084 195.022 47.304 192.371 53.18 189.165 L 53.18 210.187 L 34.59 210.187 L 34.59 197.045 Z M 87.77 210.187 L 87.77 158.562 C 92.235 152.337 96.024 145.597 99.029 138.449 L 99.029 210.187 L 87.77 210.187 Z M 312.621 286.888 C 312.621 286.888 127.566 286.888 125.357 286.888 L 122.563 286.888 L 122.563 234.688 L 312.621 234.688 L 312.621 286.888 Z" transform="matrix(0.9999999999999999, 0, 0, 0.9999999999999999, 40.44741058349609, 23.209070205688473)"/>
</svg>
