<?xml version="1.0" encoding="utf-8"?>
<svg viewBox="177.039 180.277 96 96"
  xmlns="http://www.w3.org/2000/svg">
  <circle fill="#f0b90b" r="48" cy="228.277" cx="225.039" transform="matrix(0.9999999999999999, 0, 0, 0.9999999999999999, 0, 0)"/>
  <path fill="#fff" d="M 207.138 228.277 L 199.794 235.672 L 192.399 228.277 L 199.794 220.882 L 207.138 228.277 Z M 225.039 210.376 L 237.687 223.024 L 245.082 215.629 L 232.434 203.032 L 225.039 195.637 L 217.644 203.032 L 205.047 215.629 L 212.442 223.024 L 225.039 210.376 Z M 250.284 220.882 L 242.94 228.277 L 250.335 235.672 L 257.679 228.277 L 250.284 220.882 Z M 225.039 246.178 L 212.391 233.53 L 205.047 240.925 L 217.695 253.573 L 225.039 260.917 L 232.434 253.522 L 245.082 240.874 L 237.687 233.53 L 225.039 246.178 Z M 225.039 235.672 L 232.434 228.277 L 225.039 220.882 L 217.644 228.277 L 225.039 235.672 Z" transform="matrix(0.9999999999999999, 0, 0, 0.9999999999999999, 0, 0)"/>
</svg>
