<svg xmlns="http://www.w3.org/2000/svg" viewBox="0 0 300 300" width="50" class="p-1.5">
  <defs>
    <linearGradient id="a" x1="172.46" x2="172.46" y1="288.3" y2="21.47" gradientTransform="matrix(1 0 0 -1 0 302)" gradientUnits="userSpaceOnUse">
      <stop offset="0" stop-color="#fecd71"></stop>
      <stop offset="1" stop-color="#ffaa17"></stop>
    </linearGradient>
    <linearGradient id="b" x1="127.33" x2="127.33" y1="288.3" y2="21.47" gradientTransform="matrix(1 0 0 -1 0 302)" gradientUnits="userSpaceOnUse">
      <stop offset="0" stop-color="#fecd71"></stop>
      <stop offset="1" stop-color="#ffaa17"></stop>
    </linearGradient>
  </defs>
  <path d="M253.43 127.78c-2-22.11-9.39-40.48-22.51-56.19-5.95-7.11-20.34-21.55-21.1-22.31-4-4.04-8-8.07-12-12.08-5.54-5.55-11.08-11.11-16.61-16.69a8.685 8.685 0 0 0-6.73-2.87c-6.92.08-13.83.07-20.78.05h-7.66c-1.22 0-2.2 1-2.2 2.22v.17c.18 1.78 1.11 3.4 2.56 4.45l.48.47c18.85 18.87 37.73 37.72 56.62 56.56C216.07 94 223.69 109 226.13 125.89c.09.65.25 1.29.4 1.94l.14.57c.24 9.11.07 18.86-2.58 28.44a76.486 76.486 0 0 1-19.62 33.82c-3.21 3.25-6.45 6.46-9.69 9.67-4.22 4.18-8.44 8.35-12.59 12.6-.34.38-.74.72-1.17 1-.39-.21-.73-.5-1-.86-3.43-3.87-7.18-7.86-11.46-12.2l-2.83-2.87c-7.25-7.34-14.73-14.94-22.3-22.22-2.71-2.61-5.38-5.28-8-7.94-2-2-4.03-4-6.08-6a37.342 37.342 0 0 1-11.75-25.55c.71-9.8 4.94-18 12.93-24.95 1.49-1.32 2.86-2.78 4.09-4.34 4.27-5.26 3.97-12.88-.7-17.79-4.77-5.13-12.78-5.84-17.85-1.58-17.35 14.61-25.37 30-25.22 48.45-1 8.23 1.26 15.78 3.6 22.09A57.825 57.825 0 0 0 108.06 179l20.61 20.59c16.2 16.19 32.38 32.39 48.54 48.62a6.132 6.132 0 0 0 4.24 2.24c1.76 0 3.12-1.14 4.33-2.37 7.46-7.56 14.96-15.08 22.49-22.56 5.16-5.15 10.31-10.31 15.46-15.47a102.818 102.818 0 0 0 29.31-58.45c1.13-7.52 1.95-15.6.38-23.82Z" style="fill:url(#a)"></path>
  <path d="M165.24 261.38c-2.49-2.33-4.93-4.82-7.29-7.23-3.52-3.58-7.15-7.29-11.11-10.63-1.91-1.71-3.7-3.55-5.35-5.52-1-1.17-2.08-2.34-3.18-3.45-6.17-6.32-12.56-12.61-18.73-18.7-2.77-2.73-5.54-5.45-8.29-8.19-3.43-3.4-6.84-6.94-10.13-10.37-3-3.08-5.93-6.17-9-9.2-8.14-8.16-13.6-18.61-17.72-33.87a62.63 62.63 0 0 1-1.67-12.71c-.13-2-.27-4.08-.48-6.12 1.1-19 7.17-34.72 18.55-48 1.46-1.71 3.09-3.37 4.67-5 .71-.72 1.43-1.45 2.13-2.19 2.27-2.37 4.68-4.72 7-7 4.37-4.1 8.51-8.44 12.41-13 .14-.18.37-.45.56-.65.07.06.16.13.26.23A4794.25 4794.25 0 0 0 152.04 94l21.14 21.15c3.38 3.39 5.42 7.65 7 11.39 3.64 13.83.2 25.32-10.53 35.13a53.354 53.354 0 0 0-4.61 4.66 13.892 13.892 0 0 0 .12 17.79c4.69 5.42 12.48 6.42 17.72 2.28 20.69-16.32 29.33-37.43 25-61.07-.08-.42-.26-.82-.52-1.16-3.15-16.33-13.59-27.4-24-37.34-6.39-6.08-13.88-13.34-21-21-6.72-7.22-14.3-14.74-23.16-23-5.3-4.93-10.36-10.37-15.25-15.63l-1.9-2a5.549 5.549 0 0 0-3.82-2.07 5.75 5.75 0 0 0-4 2.09c-4.86 4.69-9.62 9.36-14.34 14.04-8.63 8.43-17.51 17.14-25.88 26.08-18.72 20-28.22 43.6-28.23 70.06-.94 23.92 6.67 46.44 22.61 66.95 2.84 3.52 5.9 6.86 9.16 10l12.34 12.24c18.17 18.14 37 36.89 55.35 55.41 1.22 1.23 2.6 2.36 4.38 2.36h.1a6.041 6.041 0 0 0 4.17-2.36c3.35-3.71 7.06-7.28 10.64-10.72l.75-.73a4.97 4.97 0 0 0 1.82-3.6c-.1-1.4-.78-2.69-1.86-3.57Z" style="fill:url(#b)"></path>
</svg>
